<?xml version="1.0" encoding="UTF-8" standalone="no"?>
<!-- Created with Inkscape (http://www.inkscape.org/) -->

<svg
   width="251.03702mm"
   height="64.41758mm"
   viewBox="0 0 251.03702 64.41758"
   version="1.1"
   id="svg1"
   xmlns="http://www.w3.org/2000/svg"
   xmlns:svg="http://www.w3.org/2000/svg">
  <defs
     id="defs1" />
  <g
     id="layer1"
     transform="translate(25.16307,-108.36075)">
    <path
       d="m -9.076385,172.77805 q -5.644451,0 -9.736678,-1.905 -4.092227,-1.905 -6.350008,-5.50334 l 7.549454,-7.19668 q 1.481668,2.46945 3.668893,3.88057 2.187225,1.34055 5.00945,1.34055 3.24556,0 5.291674,-1.83444 2.116669,-1.83445 2.89278097,-5.85612 L 3.976409,131.71467 h -17.356688 l 1.905002,-9.17223 h 28.645592 l -6.561675,32.5967 q -1.270002,6.49112 -3.880561,10.37168 -2.540003,3.81001 -6.49111903,5.5739 -3.95111597,1.69333 -9.31334497,1.69333 z m 53.198978,0 q -7.478898,0 -12.911682,-2.68111 -5.362229,-2.75167 -8.255011,-7.54946 -2.892779,-4.86833 -2.892779,-11.21834 0,-6.35001 2.187223,-11.71224 2.187225,-5.43278 6.208897,-9.3839 4.092226,-4.02167 9.666124,-6.27945 5.644451,-2.25778 12.488346,-2.25778 7.4789,0 12.841129,2.75167 5.432784,2.68111 8.325564,7.54945 2.892782,4.79779 2.892782,11.14779 0,6.35001 -2.187226,11.78279 -2.187223,5.36223 -6.279451,9.3839 -4.021672,3.95112 -9.666123,6.2089 -5.573895,2.25778 -12.417793,2.25778 z m 0.98778,-9.73668 q 4.162782,0 7.478897,-1.48166 3.386672,-1.55223 5.715008,-4.23334 2.328336,-2.68112 3.527782,-6.13834 1.27,-3.52779 1.27,-7.40835 0,-3.66889 -1.552223,-6.42056 -1.552226,-2.82223 -4.586118,-4.37445 -2.963336,-1.55222 -7.337785,-1.55222 -4.162785,0 -7.478897,1.55222 -3.316116,1.48167 -5.715008,4.16278 -2.328336,2.68112 -3.598339,6.2089 -1.199446,3.45723 -1.199446,7.33779 0,3.66889 1.552226,6.49112 1.622779,2.75167 4.586115,4.30389 3.033893,1.55222 7.337788,1.55222 z m 50.165055,9.73668 q -4.02167,0 -7.831675,-0.77611 -3.739449,-0.70556 -6.843898,-1.97556 -3.033892,-1.27 -5.150561,-2.75167 l 4.656672,-8.81945 q 2.328336,1.62278 4.938895,2.82222 2.681115,1.12889 5.573895,1.76389 2.892782,0.56445 5.785564,0.56445 3.175003,0 5.43278,-0.70556 2.32834,-0.70555 3.52778,-1.97555 1.27001,-1.27001 1.27001,-3.10445 0,-1.69334 -1.34056,-2.75167 -1.34056,-1.05834 -3.52778,-1.7639 -2.116671,-0.77611 -4.72723,-1.48166 -2.610559,-0.70556 -5.291675,-1.62278 -2.610556,-0.98778 -4.797782,-2.39889 -2.116669,-1.48167 -3.457225,-3.73945 -1.34056,-2.25778 -1.34056,-5.64445 0,-5.08001 2.751672,-8.81946 2.822226,-3.73945 7.902231,-5.78556 5.080006,-2.11667 11.923899,-2.11667 5.00946,0 9.45446,1.12889 4.44501,1.05833 7.62001,3.10445 l -4.30389,8.7489 q -2.82223,-1.90501 -6.27946,-2.82223 -3.45722,-0.98778 -7.12612,-0.98778 -3.31611,0 -5.715004,0.77611 -2.328336,0.77612 -3.598336,2.18723 -1.199446,1.34055 -1.199446,3.10445 0,1.76389 1.27,2.89278 1.340557,1.05833 3.527782,1.83445 2.187224,0.70555 4.797784,1.41111 2.61056,0.70555 5.22112,1.62278 2.61056,0.91722 4.79778,2.32833 2.18723,1.41112 3.52778,3.59834 1.34056,2.11667 1.34056,5.36223 0,5.08001 -2.82223,8.89001 -2.82222,3.73945 -7.97278,5.85612 -5.08001,2.04611 -11.994462,2.04611 z m 51.082322,0 q -7.19668,0 -11.99446,-2.82222 -4.79779,-2.82223 -6.77335,-7.83168 -1.905,-5.08001 -0.56444,-11.9239 l 5.50334,-27.65781 h 11.50057 l -5.50334,27.44614 q -0.635,3.31611 -0.35278,5.78556 0.28223,2.46945 1.41112,4.09223 1.19944,1.62278 3.24555,2.39889 2.04612,0.77611 4.79779,0.77611 3.45722,0 5.99723,-1.34055 2.54,-1.34056 4.23334,-4.23334 1.69333,-2.89278 2.61055,-7.4789 l 5.50335,-27.44614 h 11.21834 l -5.57389,28.1517 q -2.18723,10.93612 -8.53724,16.51002 -6.35,5.57389 -16.72168,5.57389 z m 48.75395,-30.33892 h 23.77725 l -1.76389,8.89001 h -23.77725 z m -3.24556,20.32002 h 26.95225 l -1.905,9.17224 h -38.24116 l 9.87779,-49.38895 h 37.32394 l -1.905,9.17223 h -25.89393 z m 9.59557,-44.23839 10.58334,-10.16001 h 12.13557 l -13.8289,10.16001 z"
       id="text1"
       style="font-style:italic;font-weight:bold;font-size:266.667px;line-height:29.8;font-family:Montserrat;-inkscape-font-specification:'Montserrat Bold Italic';fill:#ea533d;stroke-width:0.264583"
       aria-label="JOSUÉ" />
    <path
       style="font-size:266.667px;font-family:Montserrat;-inkscape-font-specification:Montserrat;text-anchor:middle;fill:#ffffff;stroke-width:0.153987"
       d="m -7.681214,172.77833 q -5.009451,0 -9.242789,-1.83445 -4.162783,-1.905 -6.843898,-5.36223 l 6.350008,-7.62001 q 2.046114,2.68112 4.303894,4.09223 2.257781,1.34056 4.86834,1.34056 6.985008,0 6.985008,-8.18446 v -23.49503 h -17.356688 v -9.17223 h 28.716146 v 32.03226 q 0,9.17223 -4.515562,13.6878 -4.51556,4.51556 -13.264459,4.51556 z m 53.057866,0 q -5.856118,0 -10.865567,-1.90501 -4.938895,-1.905 -8.60779,-5.36222 -3.598336,-3.45723 -5.644451,-8.1139 -1.975557,-4.65668 -1.975557,-10.16001 0,-5.50335 1.975557,-10.16002 2.046115,-4.65667 5.715007,-8.1139 3.668893,-3.45722 8.607788,-5.36222 4.938895,-1.90501 10.724459,-1.90501 5.856118,0 10.724457,1.90501 4.938895,1.905 8.537231,5.36222 3.668895,3.45723 5.715008,8.1139 2.046112,4.58612 2.046112,10.16002 0,5.50333 -2.046112,10.23056 -2.046113,4.65667 -5.715008,8.1139 -3.598336,3.38667 -8.537231,5.29167 -4.868339,1.90501 -10.653903,1.90501 z m -0.07055,-9.73668 q 3.316113,0 6.067785,-1.12889 2.822226,-1.12889 4.938895,-3.24556 2.116669,-2.11667 3.245559,-5.00945 1.199446,-2.89278 1.199446,-6.42056 0,-3.52779 -1.199446,-6.42057 -1.12889,-2.89278 -3.245559,-5.00945 -2.046116,-2.11667 -4.868341,-3.24556 -2.822226,-1.12889 -6.138339,-1.12889 -3.316116,0 -6.138341,1.12889 -2.751672,1.12889 -4.868342,3.24556 -2.116669,2.11667 -3.316112,5.00945 -1.128893,2.89278 -1.128893,6.42057 0,3.45722 1.128893,6.42056 1.199443,2.89278 3.245559,5.00945 2.116669,2.11667 4.938895,3.24556 2.822225,1.12889 6.138341,1.12889 z m 51.858391,9.73668 q -5.926675,0 -11.359459,-1.55223 -5.432785,-1.62278 -8.748898,-4.16278 l 3.880559,-8.60779 q 3.175003,2.25778 7.478898,3.73945 4.374449,1.41111 8.819456,1.41111 3.386661,0 5.432781,-0.635 2.11667,-0.70555 3.10445,-1.905 0.98778,-1.19945 0.98778,-2.75167 0,-1.97556 -1.55223,-3.10445 -1.55222,-1.19944 -4.09223,-1.905 -2.539994,-0.77611 -5.644443,-1.41111 -3.033892,-0.70556 -6.138341,-1.69334 -3.033893,-0.98778 -5.573895,-2.54 -2.540003,-1.55222 -4.162782,-4.09223 -1.552226,-2.54 -1.552226,-6.49112 0,-4.23334 2.257782,-7.69056 2.328336,-3.52778 6.914452,-5.5739 4.656671,-2.11667 11.641682,-2.11667 4.656671,0 9.172231,1.12889 4.51556,1.05834 7.97278,3.24556 l -3.52778,8.67835 q -3.45723,-1.97556 -6.91445,-2.89278 -3.45723,-0.98778 -6.773337,-0.98778 -3.316116,0 -5.432785,0.77611 -2.11667,0.77611 -3.033893,2.04611 -0.917223,1.19945 -0.917223,2.82223 0,1.905 1.552223,3.10444 1.552226,1.12889 4.092229,1.83445 2.540002,0.70556 5.573886,1.41111 3.10445,0.70556 6.13835,1.62279 3.10444,0.91722 5.64445,2.46944 2.54,1.55223 4.09222,4.09223 1.62278,2.54 1.62278,6.42056 0,4.16278 -2.32833,7.62001 -2.32834,3.45723 -6.98501,5.5739 -4.58612,2.11667 -11.641677,2.11667 z m 50.729537,0 q -10.51279,0 -16.43947,-5.85612 -5.92667,-5.85612 -5.92667,-16.72169 v -27.65781 h 11.43001 v 27.23448 q 0,7.05556 2.89278,10.16001 2.89279,3.10445 8.1139,3.10445 5.22112,0 8.1139,-3.10445 2.89278,-3.10445 2.89278,-10.16001 v -27.23448 h 11.28891 v 27.65781 q 0,10.86557 -5.92668,16.72169 -5.92667,5.85612 -16.43946,5.85612 z m 44.16783,-30.33893 h 23.77725 v 8.89001 h -23.77725 z m 0.84667,20.32003 h 26.8817 v 9.17223 h -38.24116 v -49.38895 h 37.32394 v 9.17223 h -25.96448 z m 0.91723,-44.23839 9.52501,-10.16001 h 11.85334 l -12.77057,10.16001 z"
       id="JOSUÉ"
       class="cls-2"
       aria-label="JOSUÉ" />
  </g>
</svg>
